**ABCDEFGHIJKLMNOPQRSTUVWXYZabcdefghijklmnopqrstuvwxyz**************************
**PARASOLID !"#$%&'()*+,-./:;<=>?@[\]^_`{|}~0123456789**************************
**PART1;
MC=AMD64;
MC_MODEL=Intel64 Family 6 Model 142 Stepping 10, GenuineIntel;
MC_ID=unknown;
OS=Windows_NT;
OS_RELEASE=unknown;
FRU=Parasolid Version 31.1, build 284, 10- 9-2019;
APPL=SOLIDWORKS 2020-2019357;
SITE=;
USER=unknown;
FORMAT=text;
GUISE=transmit;
KEY=Old Mask to New Hose Adapter_rev3_ForLathe;
FILE=Old Mask to New Hose Adapter_rev3_ForLathe.x_t;
DATE=Tue Mar 31 15:56:25 2020;
**PART2;
SCH=SCH_3101284_31100;
USFLD_SIZE=0;
**PART3;
**END_OF_HEADER*****************************************************************
T51 : TRANSMIT FILE created by modeller version 310128423 SCH_3101284_31100_1300
6222 0 12 34 CCCCCCI4 mesh1006 0 I8 polyline1008 0 CCCCCCCDI5 owner1040 0 CCCCCC
I13 boundary_mesh1006 0 I17 boundary_polyline1008 0 CCCA16 index_map_offset0 0 1
 dA9 index_map82 0 A17 node_id_index_map82 0 A20 schema_embedding_map82 0 A5 chi
ld12 0 A14 lowest_node_id0 0 1 dA16 mesh_offset_data206 0 Z1 1478 2 3 0 0 0 0 0
 0 1e3 1e-8 0 4 0 1 0 1 1 5 6 7 8 0 0 9 10 11 0 0 0 0 0 0 0 81 255 2 2 1442 12 1
 13 0 0 0 0 14 70 11 CI9 list_type0 0 1 uI10 notransmit0 0 1 lCCCDCCDI12 finger_
index0 0 1 dI12 finger_block1012 0 CZ3 0 4 T1 0 0 10 20 1 15 15 13 255 5 146 0 1
 0 16 0 0 17 0 54 255 6 1140 0 18 19 0 0 +-.000861602448427635 0 0 -1 0 0 .01631
95 .00254 0 0 1 31 255 7 1082 0 10 20 0 0 --.000861602448427635 0 0 -1 0 0 0 0 1
 .0137795 29 255 8 453 0 11 21 0 .01388236194208272 -.00253848765425489 .0182391
9695132425 19 8 CCCCCCCA5 owner12 0 Z9 150 0 1 17 0 22 V0 16 255 10 1079 0 ?23 0
 24 7 0 0 1 18 255 11 451 0 25 0 26 8 ?1 17 255 25 0 27 28 29 11 30 31 0 32 +18
 26 445 0 33 11 34 21 ?1 17 33 0 35 36 37 26 38 39 0 40 -18 34 627 0 41 26 42 43
 ?1 29 21 447 0 26 43 8 .02413 -.002892274325673055 -.0181864502920458 29 43 754
 0 34 44 21 .02413 .002892274325673055 .0181864502920458 29 44 755 0 42 45 43 .0
2413 .002892274325673055 -.0181864502920458 18 42 626 0 46 34 47 44 ?1 29 45 756
 0 47 48 44 .03048 .0031115 .01737662155742595 18 47 616 0 49 42 50 45 ?1 29 48
 757 0 50 51 45 .03048 .0031115 .0160848144767044 18 50 610 0 52 47 53 48 ?1 29
 51 758 0 53 54 48 .03048 .0031115 -.0160848144767044 18 53 615 0 55 50 56 51 ?1
 29 54 759 0 56 57 51 .03048 .0031115 -.01737662155742595 18 56 613 0 58 53 59 5
4 ?1 29 57 760 0 59 60 54 .01388236194208272 .00253848765425489 .018239196951324
25 18 59 621 0 61 56 62 57 ?1 29 60 761 0 62 63 57 .01388236194208272 .002538487
65425489 .01618514038954235 18 62 623 0 64 59 65 60 ?1 29 63 762 0 65 66 60 .013
88236194208272 .00253848765425489 -.01618514038954235 18 65 618 0 67 62 68 63 ?1
 29 66 763 0 68 69 63 .01388236194208272 .00253848765425489 -.01823919695132425
 18 68 632 0 70 65 71 66 ?1 29 69 765 0 71 72 66 .02413 -.002892274325673055 .01
81864502920458 18 71 629 0 28 68 73 69 ?1 29 72 767 0 73 74 69 .0138823619420827
2 -.00253848765425489 .01618514038954235 18 73 620 0 29 71 75 72 ?1 29 74 768 0
 75 76 72 .01388236194208272 -.00253848765425489 -.01618514038954235 18 75 622 0
 77 73 78 74 ?1 29 76 769 0 78 79 74 .01388236194208272 -.00253848765425489 -.01
823919695132425 18 78 619 0 36 75 80 76 ?1 29 79 770 0 80 81 76 .03048 -.0031115
 .01737662155742595 18 80 611 0 82 78 83 79 ?1 29 81 771 0 83 84 79 .03048 -.003
1115 .0160848144767044 18 83 614 0 85 80 86 81 ?1 29 84 772 0 86 87 81 .03048 -.
0031115 -.0160848144767044 18 86 612 0 88 83 89 84 ?1 29 87 773 0 89 0 84 .03048
 -.0031115 -.01737662155742595 18 89 635 0 37 86 0 87 ?1 17 37 0 35 33 88 89 90
 91 0 38 -15 255 35 693 0 37 92 0 17 88 0 35 37 93 86 94 95 0 90 -17 90 0 96 97
 98 86 37 91 0 99 +16 91 576 0 ?90 100 101 102 101 101 1 17 38 0 103 104 105 89
 33 39 0 98 +15 103 390 0 104 106 0 17 104 0 103 107 38 80 98 108 0 0 +17 105 0
 103 38 107 26 109 110 0 0 -16 39 579 0 ?38 95 111 112 0 0 1 17 98 0 96 90 113 8
9 104 108 0 0 -15 96 231 0 98 114 0 17 113 0 96 98 97 80 85 101 0 104 +16 108 48
1 0 ?104 115 116 117 115 115 1 16 115 224 0 ?118 119 108 117 108 108 1 16 116 21
9 0 ?120 108 110 121 110 110 1 31 117 287 0 115 121 122 0 +.03048 0 0 -1 0 0 0 0
 1 .017653 31 121 286 0 116 123 117 0 +.02413 0 0 -1 0 0 0 0 1 .018415 31 122 28
8 0 124 117 125 0 +.03048 0 0 -1 0 0 0 0 1 .016383 16 124 229 0 ?126 127 119 122
 119 119 1 31 125 291 0 127 122 128 0 +-.04064 0 0 -1 0 0 0 0 1 .0137795 16 127
 244 0 ?129 130 124 125 0 0 1 32 255 128 454 0 130 125 131 0 +-.059646419091469
 0 0 -.03450317240837305 -.999404588289326 0 -.999404588289327 .0345031724083730
5 0 .53371903841315 .018415 16 130 452 0 ?132 133 127 128 134 134 1 38 12 CCCCCC
CCCCCA17 intersection_data204 0 Z131 458 0 133 128 135 0 +136 137 138 139 140 14
1 16 133 456 0 ?142 143 130 131 0 0 1 32 135 461 0 143 131 144 0 +-.059646419091
469 0 0 -.03450317240837305 .999404588289326 0 -.999404588289327 -.0345031724083
7305 0 .53371903841315 .018415 51 255 136 265 0 16 145 146 147 --.01177612704918
034 0 0 -1 0 0 .018415 0 0 1 51 137 726 0 148 149 150 151 +.01397 0 -.0197993 0
 0 1 .00254 1 0 0 40 255 11 138 0 1 11 .000145055929030096 .34032506191504 ??.01
388236194208272 -.00253848765425489 .01823919695132425 .0130510127923146 -.00236
7923671090475 .0182621237124243 .01232336348099102 -.0019339566112677 .018313165
66915 .01177646312896216 -.00128062328395103 .0183704172245652 .0114757062331484
8 -.000479685943764932 .01840875135350995 .0114571556699023 .000370423234551751
 .0184112740359624 .01171752222687646 .00117385854411187 .0183775482891058 .0122
2878795634352 .001849264886117085 .0183219115918884 .0129401424699321 .002321851
301819835 .01826803852448965 .0137685767556021 .002532000923502245 .018240098583
15965 .01388236194208272 .00253848765425489 .01823919695132425 41 3 CI8 term_use
0 0 1 cCZ1 139 L?.01388236194208272 -.00253848765425489 .01823919695132425 41 1
 140 L?.01388236194208272 .00253848765425489 .01823919695132425 204 2 17 INTERSE
CTION_DATA17 Intersection data7 uv_type0 0 1 u6 values0 1 1 fT44 141 4 6.1448960
4761577 -.02565848899126305 4.67787895848068 .03803849695132425 6.15424161312657
 -.02482713984149495 4.34218458557784 .0380614237124243 6.17797056807904 -.02409
949053017135 4.007062962475375 .03811246566915 6.21358673263764 -.02355259017814
25 3.670027613811925 .0381697172245652 6.25713370753773 -.0232518332823288 3.331
58637947524 .03820805135350995 .02011665596168005 -.0232332827190826 2.995234780
920085 .03821057403596245 .0637879432348101 -.0234936492760568 2.66117563007778
 .0381768482891058 .100591215384404 -.02400491500552385 2.32610928358734 .038121
2115918884 .126421266446845 -.02471626951911245 1.98827363988113 .03806733852448
965 .1379336205313574 -.02554470380478245 1.650180167217905 .0380393985831597 .1
38289259563813 -.02565848899126305 1.60530634869891 .03803849695132425 14 255 14
8 654 152 ?153 154 155 5 137 -154 154 153 154 22 50 255 149 727 0 156 157 137 15
8 +.03048 -.0031115 -.0197993 -.03450317240837305 -.999404588289326 0 .999404588
289327 -.03450317240837305 0 50 150 252 0 159 137 160 0 +-.04064 .014732 0 1 0 0
 0 0 -1 141 255 151 131 161 162 137 141 161 163 164 151 137 141 162 144 151 164
 137 38 144 470 0 165 135 166 0 +136 137 167 168 169 170 141 164 171 162 161 137
 38 171 735 0 172 173 163 0 +174 137 175 176 177 178 16 172 557 0 ?179 180 181 1
71 0 0 1 32 173 736 0 182 183 171 0 --.059646419091469 0 0 -.03450317240837305 .
999404588289326 0 -.999404588289327 -.03450317240837305 0 .474825903139975 .0163
83 38 163 734 0 180 171 184 0 +174 137 185 186 187 188 51 174 268 0 189 190 191
 192 +-.01177612704918034 0 0 -1 0 0 .016383 0 0 1 40 11 175 0 1 11 .00014555303
97117918 .3411155657577925 ??.01388236194208272 .00253848765425489 .016185140389
54235 .01305206024332598 .00236832991855384 .0162109130648734 .01232536690274104
 .001935660604393355 .0162682484313647 .0117779070602907 .001283093349556726 .01
63326776878846 .01147611000547714 .000481780754305099 .01637591451812025 .011456
7511365039 -.0003676685329690215 .0163788738578043 .01171523763141936 -.00116946
4262486312 .0163412068813404 .0122240457083618 -.00184478822944807 .016278803561
33365 .0129344215925964 -.00231930536198221 .01621799961887655 .0137628750341189
6 -.002531540884226205 .01618622839797745 .01388236194208272 -.00253848765425489
 .01618514038954235 41 1 176 L?.01388236194208272 .00253848765425489 .0161851403
8954235 41 1 177 L?.01388236194208272 -.00253848765425489 .01618514038954235 204
 44 178 4 .155573246247183 -.02565848899126305 1.60530634869891 .035984440389542
35 .1450684993526532 -.0248281872925063 1.94055840956145 .0360102130648734 .1184
27188247394 -.0241014939519214 2.275086882300895 .0360675484313647 .078398870161
2293 -.02355403410947105 2.61203125750731 .0361319776878846 .02941159869527595 -
.0232522370546575 2.950759018624315 .03617521451812025 6.26074134682568 -.023232
87818568425 3.28685436620007 .0361781738578043 6.21174175503378 -.02349136468059
97 3.620059800860405 .0361405068813404 6.17034216622697 -.02400017275754215 3.95
4508521053295 .0360781035613337 6.1411403146403 -.02471054864177675 4.2924463876
91375 .03601729961887655 6.12804125315888 -.0255390020832993 4.63075307242089 .0
3598552839797745 6.1276120609324 -.02565848899126305 4.67787895848068 .035984440
38954235 14 189 237 193 ?114 194 195 5 174 -0 0 114 194 22 50 190 267 0 114 146
 174 0 +.03048 .017653 0 -1 0 0 0 0 1 51 191 270 0 194 174 196 0 +-.011776127049
18034 0 0 -1 0 0 .0137795 0 0 1 141 192 171 197 197 174 141 197 163 192 192 174
 14 194 247 198 ?189 199 200 5 191 -0 0 189 199 22 54 196 939 0 201 191 202 0 +-
.027178 0 0 -1 0 0 .0182753 762e-6 0 0 1 14 201 932 203 ?204 205 206 5 196 -0 0
 204 205 22 54 202 952 0 204 196 207 0 +-.0186309 0 0 -1 0 0 .01666205912201815
 762e-6 0 0 1 14 204 945 208 ?209 201 210 5 202 -0 0 209 201 22 52 255 207 1006
 211 209 202 212 0 --.01050744481605356 0 0 1 0 0 .0161625551839465 .70710678118
6544 .707106781186552 0 0 -1 81 2 211 1007 213 207 0 0 0 214 215 216 14 209 999
 217 ?218 204 219 5 207 -0 0 218 204 22 52 212 1020 214 218 207 220 0 +.00279400
000000005 0 0 1 0 0 .016383 .707106781186544 .707106781186551 0 0 -1 81 2 214 10
21 213 212 0 0 211 0 221 222 14 218 1013 223 ?224 209 225 5 212 -0 0 224 209 22
 54 220 1101 0 224 212 226 0 +.003846102448427705 0 0 -1 0 0 .013843 .00254 0 0
 1 14 224 1094 227 ?228 218 229 5 220 -0 0 228 218 22 54 226 1114 0 228 220 19 0
 +-.00720289755157239 0 0 -1 0 0 .015875 .00254 0 0 1 14 228 1107 230 ?231 224 2
32 5 226 +0 0 231 224 22 54 19 1127 0 231 226 6 0 +-.01159336040429926 0 0 -1 0
 0 .01866874204412845 .00254 0 0 1 14 231 1120 233 ?18 228 234 5 19 -0 0 18 228
 22 81 1 233 1452 235 231 236 0 230 237 238 14 18 1133 237 ?0 231 239 5 6 +0 0 0
 231 22 15 234 1121 0 240 231 241 13 22 149 0 0 0 0 0 0 9 16 14 16 863 242 ?243
 0 244 5 136 -0 0 243 0 22 81 1 242 1454 235 16 245 0 237 246 247 14 243 514 246
 ?199 16 248 5 190 -114 114 199 16 22 15 244 1056 0 249 16 250 17 249 0 244 249
 249 0 251 252 0 0 +15 250 822 0 253 16 254 17 253 0 250 253 253 0 255 256 0 0 -
15 254 221 0 120 16 257 17 120 0 254 258 259 42 260 116 0 0 +15 257 861 0 261 16
 0 17 261 0 257 261 261 0 262 263 0 0 -17 262 0 264 262 262 0 261 263 0 0 +16 26
3 859 0 ?262 265 266 166 0 0 1 16 265 900 0 ?267 268 263 269 0 0 1 16 266 471 0
 ?258 263 165 135 143 143 1 38 166 862 0 263 144 269 0 +136 270 271 272 272 273
 31 269 903 0 265 166 274 0 +-.02794 0 0 -1 0 0 0 0 1 .0182753 51 270 883 0 205
 275 276 277 -.011938 .021337 0 0 -1 0 .0025146 0 0 -1 40 20 271 0 1 20 .0001435
808433090526 .3401901324811995 ??.011938 -.0182425056349176 -.0025146 .012765939
52708488 -.01826128406494215 -.002374390300580435 .01350047415840916 -.018309296
47298595 -.001970250660272335 .0140637214073137 -.01836593867303035 -.0013433248
521814 .01438914650999916 -.01840644265069925 -.000561332295987781 .014436970541
47022 -.01841287228020485 .000279927477865213 .01420685510113286 -.0183830551136
0765 .00108420924643878 .01372452071772534 -.0183297754518396 .00176962054834873
5 .01303754199473804 -.01827561228627355 .002261464251719995 .012224843672543 -.
01824476064881305 .00249818611546899 .011385855513496 -.01825085957904385 .00245
3232485114945 .01061219471793312 -.018290619767683 .002136692189821355 .00998227
041886404 -.01834704036171855 .001580612212236065 .00956860098446906 -.018395734
92782495 .000842117251456735 .00942341901248777 -.01841499740382165 977840692880
094e-20 .00955986536607655 -.01839686212855515 -.000817122281506135 .00995953176
297573 -.0183494781507517 -.00155205560309098 .01058333847297066 -.0182927340682
8005 -.002118514882455765 .0113635863208043 -.0182515468636181 -.002448113985326
84 .011938 -.0182425056349176 -.0025146 41 1 272 H?.011938 -.0182425056349176 -.
0025146 204 80 273 4 4.5754092896813 -.02371412704918035 0 .0395795056349176 4.5
8309117756604 -.0245420665762652 .335512326854858 .03959828406494215 4.605192176
99902 -.0252766012075895 .670478424722539 .03964629647298595 4.63937681155383 -.
02583984845649405 1.007223196400012 .03970293867303035 4.68190191758277 -.026165
2735591795 1.345670249749096 .03974344265069925 4.72759062358646 -.0262130975906
5055 1.682348416706615 .03974987228020485 4.77129946723151 -.0259829821503132 2.
016580655123615 .03972005511360765 4.80863419050529 -.0255006477669057 2.3514421
36198905 .0396667754518396 4.83550532278617 -.02481366904391835 2.68903940300124
 .03961261228627355 4.84846896633651 -.02400097072172335 3.027272513470105 .0395
8176064881305 4.84600545935465 -.02316198256267635 3.36297195709118 .03958785957
904385 4.82868090743667 -.02238832176711345 3.696945337490215 .039627619767683 4
.79832758897605 -.0217583974680444 4.032670608609815 .03968404036171855 4.758134
89610954 -.0213447280336494 4.37089928766715 .03973273492782495 4.71291998268653
 -.0211995460616681 4.70850031754639 .03975199740382165 4.6680017600554 -.021335
9924152569 5.04334910517948 .03973386212855515 4.62800673760341 -.02173565881215
605 5.37759048800423 .0396864781507517 4.59709080070487 -.022359465522151 5.7142
700388296 .03962973406828005 4.57905294866484 -.02313971336998465 6.052719096808
14 .0395885468636181 4.5754092896813 -.02371412704918035 0 .0395795056349176 14
 205 873 278 ?201 279 280 5 270 -0 0 201 279 22 50 275 884 0 279 0 270 0 +.01193
8 -.021336 0 0 -1 0 0 0 1 51 276 847 0 1 270 281 282 --.01177612704918034 0 0 -1
 0 0 .018415 0 0 1 141 277 166 277 277 270 50 281 846 0 283 276 284 0 +.011938 .
021336 0 0 1 0 0 0 1 141 282 285 282 282 276 38 285 848 0 256 286 287 0 +284 276
 288 289 289 290 16 256 831 0 ?255 31 291 285 0 0 1 31 286 849 0 291 292 285 0 +
.011938 .021336 0 0 1 0 0 0 1 .0025146 30 255 287 745 0 293 285 294 0 +.01388236
194208272 .00253848765425489 -.0197993 0 0 1 51 284 845 0 295 281 157 296 +.0119
38 -.0198003 0 0 1 0 .0025146 0 0 1 40 20 288 0 1 20 .0001435808433090526 .34019
01324811995 ??.011938 .0182425056349176 .0025146 .01276593952708488 .01826128406
494215 .002374390300580435 .01350047415840916 .01830929647298595 .00197025066027
2335 .0140637214073137 .01836593867303035 .0013433248521814 .01438914650999916 .
01840644265069925 .000561332295987781 .01443697054147022 .01841287228020485 -.00
0279927477865213 .01420685510113286 .01838305511360765 -.00108420924643878 .0137
2452071772534 .0183297754518396 -.001769620548348735 .01303754199473804 .0182756
1228627355 -.002261464251719995 .012224843672543 .01824476064881305 -.0024981861
1546899 .011385855513496 .01825085957904385 -.002453232485114945 .01061219471793
312 .018290619767683 -.002136692189821355 .00998227041886404 .01834704036171855
 -.001580612212236065 .00956860098446906 .01839573492782495 -.000842117251456735
 .00942341901248777 .01841499740382165 -977840692880094e-20 .00955986536607655 .
01839686212855515 .000817122281506135 .00995953176297573 .0183494781507517 .0015
5205560309098 .01058333847297066 .01829273406828005 .002118514882455765 .0113635
863208043 .0182515468636181 .00244811398532684 .011938 .0182425056349176 .002514
6 41 1 289 H?.011938 .0182425056349176 .0025146 204 80 290 4 0 .0380428056349176
 1.433816636091502 -.02371412704918035 .335512326854858 .03806158406494215 1.441
498523976248 -.0245420665762652 .670478424722539 .03810959647298595 1.4635995234
09228 -.0252766012075895 1.007223196400012 .03816623867303035 1.497784157964032
 -.02583984845649405 1.345670249749096 .03820674265069925 1.54030926399298 -.026
1652735591795 1.682348416706615 .03821317228020485 1.58599796999667 -.0262130975
9065055 2.016580655123615 .03818335511360765 1.62970681364172 -.0259829821503132
 2.351442136198905 .0381300754518396 1.667041536915495 -.0255006477669057 2.6890
3940300124 .03807591228627355 1.69391266919638 -.02481366904391835 3.02727251347
0105 .03804506064881305 1.70687631274671 -.02400097072172335 3.36297195709118 .0
3805115957904385 1.704412805764855 -.02316198256267635 3.696945337490215 .038090
919767683 1.68708825384688 -.02238832176711345 4.032670608609815 .03814734036171
855 1.656734935386255 -.0217583974680444 4.37089928766715 .03819603492782495 1.6
1654224251974 -.0213447280336494 4.70850031754639 .03821529740382165 1.571327329
096735 -.0211995460616681 5.04334910517948 .03819716212855515 1.526409106465605
 -.0213359924152569 5.37759048800423 .0381497781507517 1.486414084013612 -.02173
565881215605 5.7142700388296 .03809303406828005 1.455498147115076 -.022359465522
151 6.05271909680814 .0380518468636181 1.437460295075044 -.02313971336998465 0 .
0380428056349176 1.433816636091502 -.02371412704918035 14 295 835 297 ?279 283 2
98 5 284 +0 0 279 283 22 50 157 729 0 153 284 149 299 +.01388236194208272 .00253
848765425489 -.0197993 -.03450317240837305 .999404588289326 0 -.999404588289327
 -.03450317240837305 0 141 296 285 296 296 284 14 153 670 300 ?92 148 301 5 157
 -302 302 92 148 22 141 299 303 304 304 157 38 303 738 0 305 306 183 0 +146 157
 307 308 309 310 141 304 183 299 299 157 38 183 737 0 311 303 173 0 +146 157 312
 313 314 315 16 311 569 0 ?316 182 305 183 0 0 1 52 146 266 0 106 136 190 317 -.
03048 0 0 -1 0 0 .017653 .11914522061843 .992876838486922 0 0 1 40 2 312 0 1 2 3
5178447483318e-19 .00107398320698838 ??.0241298 .00289226742092741 .018186475691
7446 .0304802 .00311150690474565 .01737659593931725 41 1 313 L?.0241298 .0028922
6742092741 .0181864756917446 41 1 314 L?.0304802 .00311150690474565 .01737659593
931725 204 8 315 4 .1577132031004945 .0063502 -.01025354313757728 .0379857756917
446 .1771852802089305 -2000000000022815e-22 -.0166077264927587 .0371758959393172
5 14 106 227 318 ?319 114 103 5 146 -199 199 319 114 22 141 317 320 321 322 146
 38 320 741 0 111 323 112 0 +146 149 324 325 326 327 141 321 183 328 317 146 141
 322 112 317 328 146 38 112 740 0 39 320 306 0 +146 149 329 330 331 332 141 328
 303 322 321 146 32 306 739 0 95 112 303 0 --.059646419091469 0 0 -.034503172408
37305 -.999404588289326 0 -.999404588289327 .03450317240837305 0 .47482590313997
5 .016383 40 2 329 0 1 2 35178447483318e-19 .00107398320698838 ??.0241298 -.0028
9226742092741 -.0181864756917446 .0304802 -.00311150690474565 -.0173765959393172
5 41 1 330 L?.0241298 -.00289226742092741 -.0181864756917446 41 1 331 L?.0304802
 -.00311150690474565 -.01737659593931725 204 8 332 4 3.29930585669029 .0063502 -
.00635398323602815 .001612824308255385 3.318777933798725 -2000000000022815e-22 2
00119153289677e-21 .002422704060682765 16 95 577 0 ?94 333 39 306 333 333 1 17 9
4 0 334 335 99 75 88 95 0 0 +16 333 572 0 ?336 305 95 306 95 95 1 17 336 0 334 9
9 179 83 29 333 0 97 +16 305 564 0 ?337 311 333 303 0 0 1 17 337 0 338 260 118 4
2 58 305 0 120 +15 338 488 0 118 199 0 17 260 0 338 316 337 34 120 116 0 0 -17 1
18 0 338 337 316 56 339 115 0 0 +17 58 0 301 55 46 56 337 305 0 340 -15 301 673
 0 341 153 0 17 55 0 301 67 58 53 340 342 0 343 +17 46 0 301 58 341 42 258 266 0
 337 -17 340 0 248 339 126 56 55 342 0 118 -15 248 513 0 339 243 0 17 339 0 248
 344 340 47 118 115 0 0 -17 126 0 248 340 344 53 345 124 0 0 +16 342 549 0 ?55 2
93 100 294 100 100 1 16 293 567 0 ?346 347 342 287 347 347 1 16 100 547 0 ?49 34
2 91 294 342 342 1 30 294 744 0 100 287 102 0 +.03048 .0031115 -.0197993 0 0 1 3
0 102 743 0 101 294 323 0 +.03048 -.0031115 -.0197993 0 0 1 16 101 573 0 ?113 91
 348 102 91 91 1 30 323 742 0 31 102 320 0 +.01388236194208272 -.002538487654254
89 -.0197993 0 0 1 16 31 558 0 ?25 348 256 323 348 348 1 16 348 554 0 ?93 101 31
 323 31 31 1 17 93 0 35 88 36 75 349 348 0 94 +17 36 0 35 93 33 78 40 134 0 349
 -17 349 0 155 70 77 78 93 348 0 350 -15 155 657 0 349 148 0 17 70 0 155 351 349
 68 350 165 0 341 -17 77 0 155 349 351 75 335 180 0 93 -17 350 0 254 40 258 78 7
0 165 0 0 +17 40 0 254 109 350 26 36 134 0 105 +17 258 0 254 350 120 68 46 266 0
 0 +16 165 468 0 ?350 266 134 144 0 0 1 16 134 465 0 ?40 165 143 128 130 130 1 1
6 143 459 0 ?259 134 133 135 266 266 1 17 259 0 254 120 142 34 61 143 0 260 +17
 142 0 254 259 132 59 32 133 0 0 +17 61 0 352 353 41 59 259 143 0 346 -15 352 67
7 0 49 302 0 17 353 0 352 52 61 62 346 293 0 354 -17 41 0 352 61 49 34 316 311 0
 259 -17 346 0 355 32 64 59 353 293 0 142 +15 355 661 0 346 154 0 17 32 0 355 30
 346 11 142 133 0 132 -17 64 0 355 346 30 62 179 172 0 353 -17 30 0 355 64 32 73
 25 31 0 179 -17 179 0 334 336 354 73 64 172 0 0 +15 334 392 0 345 189 0 17 354
 0 334 179 345 62 52 182 0 0 +17 345 0 334 354 343 50 126 124 0 0 -17 52 0 352 4
9 353 50 354 182 0 344 -16 182 566 0 ?354 181 311 173 181 181 1 16 181 563 0 ?34
3 172 182 173 182 182 1 17 343 0 334 345 335 53 67 181 0 126 +17 335 0 334 343 9
4 65 77 180 0 0 +17 67 0 301 341 55 65 343 181 0 351 -17 341 0 301 46 67 68 351
 347 0 258 -17 351 0 155 77 70 65 341 347 0 335 +16 347 562 0 ?351 111 293 287 2
93 293 1 16 111 574 0 ?107 39 347 320 0 0 1 17 107 0 103 105 104 71 82 111 0 109
 +17 82 0 27 85 28 80 107 111 0 113 -17 109 0 254 132 40 71 105 110 0 0 +17 132
 0 254 142 109 11 28 130 0 0 +16 110 446 0 ?109 116 356 121 116 116 1 16 356 194
 0 ?357 110 358 123 0 0 1 17 357 0 359 357 357 0 360 356 0 0 +16 358 189 0 ?361
 356 362 363 0 0 1 31 123 281 0 356 363 121 0 +-.0193929 0 0 -1 0 0 0 0 1 .01979
93 31 363 280 0 358 364 123 0 +-.022098 0 0 -1 0 0 0 0 1 .0197993 31 364 279 0 3
62 365 363 0 +-.024384 0 0 -1 0 0 0 0 1 .0175133 16 362 184 0 ?366 358 367 364 0
 0 1 31 365 277 0 367 368 364 0 +-.02794 0 0 -1 0 0 0 0 1 .0197231 16 367 174 0
 ?369 362 370 365 0 0 1 31 368 276 0 370 371 365 0 +-.03223402885891525 0 0 -1 0
 0 0 0 1 .0197231 16 370 169 0 ?372 367 373 368 0 0 1 31 371 275 0 373 374 368 0
 +-.034544 0 0 -1 0 0 0 0 1 .0181886191705651 16 373 164 0 ?375 370 376 371 0 0
 1 31 374 274 0 376 184 371 0 +-.0367247053888852 0 0 -1 0 0 0 0 1 .016007913781
67985 16 376 159 0 ?377 373 378 374 0 0 1 31 184 273 0 378 163 374 0 +-.04064 0
 0 -1 0 0 0 0 1 .01550037559135015 16 378 154 0 ?379 376 180 184 0 0 1 17 379 0
 380 379 379 0 381 378 0 0 +16 180 555 0 ?335 378 172 163 0 0 1 15 380 156 0 379
 159 0 17 381 0 382 381 381 0 379 378 0 0 -15 382 377 0 381 383 384 14 383 162 3
85 ?159 386 382 5 160 -0 0 159 386 22 15 384 161 0 377 383 0 17 377 0 384 377 37
7 0 387 376 0 0 +17 387 0 388 387 387 0 377 376 0 0 -15 388 378 0 387 386 389 14
 386 167 390 ?383 391 388 5 392 -0 0 383 391 22 15 389 166 0 375 386 0 17 375 0
 389 375 375 0 393 373 0 0 +17 393 0 394 393 393 0 375 373 0 0 -15 394 379 0 393
 391 395 14 391 172 396 ?386 397 394 5 398 -0 0 386 397 22 15 395 171 0 372 391
 0 17 372 0 395 372 372 0 399 370 0 0 +17 399 0 400 399 399 0 372 370 0 0 -15 40
0 380 0 399 397 401 14 397 177 402 ?391 403 400 5 404 -0 0 391 403 22 15 401 176
 0 369 397 0 17 369 0 401 369 369 0 405 367 0 0 +17 405 0 406 405 405 0 369 367
 0 0 -15 406 381 0 405 403 0 14 403 182 407 ?397 408 409 5 410 -0 0 397 408 22 8
1 1 407 1464 235 403 411 0 402 412 413 14 408 187 412 ?403 414 415 5 416 -0 0 40
3 414 22 15 409 901 0 267 403 406 50 410 257 0 403 404 416 0 +-.02794 .0197231 0
 -1 0 0 0 0 1 51 404 256 0 397 398 410 0 --.01177612704918034 0 0 -1 0 0 .019723
1 0 0 1 51 416 258 0 408 410 417 0 --.01177612704918034 0 0 -1 0 0 .0175133 0 0
 1 52 417 259 0 414 416 418 0 --.022098 0 0 1 0 0 .0197993 .707106781186554 .707
106781186541 0 0 -1 14 414 192 419 ?408 420 421 5 417 -0 0 408 420 22 51 418 260
 0 420 417 422 0 --.01177612704918034 0 0 -1 0 0 .0197993 0 0 1 14 420 197 423 ?
414 424 425 5 418 -0 0 414 424 22 50 422 261 0 424 418 145 0 +-.0193929 .0190373
 0 -1 0 0 0 0 1 14 424 202 426 ?420 319 427 5 422 -0 0 420 319 22 52 145 263 0 3
19 422 136 0 --.00762 0 0 1 0 0 .016256 .03234552577941605 .999476746583958 0 0
 -1 14 319 212 428 ?424 106 429 5 145 -0 0 424 106 22 81 1 428 1469 235 319 430
 0 426 431 432 15 429 1074 0 433 319 434 17 433 0 429 433 433 0 435 24 0 0 +15 4
34 920 0 436 319 0 17 436 0 434 436 436 0 437 438 0 0 +17 437 0 210 437 437 0 43
6 438 0 0 -16 438 919 0 ?436 439 440 441 0 0 1 16 439 1037 0 ?442 443 438 444 0
 0 1 16 440 912 0 ?445 438 268 446 0 0 1 31 441 922 0 438 446 444 0 +-.018606252
7093561 0 0 1 0 0 0 0 -1 .01590045784112115 31 446 915 0 440 274 441 0 +-.019392
9 0 0 -1 0 0 0 0 1 .01666205912201815 31 444 1040 0 439 441 447 0 +.003846102448
427705 0 0 -1 0 0 0 0 1 .016383 31 447 1046 0 443 444 448 0 +.000934448775786184
 0 0 -1 0 0 0 0 1 .01452344877578614 16 443 1043 0 ?449 450 439 447 0 0 1 31 448
 1052 0 450 447 451 0 +.002050051224213885 0 0 1 0 0 0 0 -1 .01563905122421385 1
6 450 1049 0 ?452 252 443 448 0 0 1 31 451 1058 0 252 448 453 0 --.0072028975515
7239 0 0 -1 0 0 0 0 1 .018415 16 252 1055 0 ?249 454 450 451 0 0 1 31 453 1064 0
 454 451 455 0 +-.00979730918008545 0 0 1 0 0 0 0 -1 .0168726908199146 16 454 10
61 0 ?456 457 252 453 0 0 1 31 455 1070 0 457 453 20 0 +-.00899894877578621 0 0
 -1 0 0 0 0 1 .01767105122421385 16 457 1067 0 ?458 24 454 455 0 0 1 31 20 1076
 0 24 455 7 0 --.01151120276881954 0 0 1 0 0 0 0 -1 .0161300711078052 16 24 1073
 0 ?433 10 457 20 0 0 1 17 458 0 219 458 458 0 459 457 0 0 +15 219 1068 0 458 20
9 460 17 459 0 232 459 459 0 458 457 0 0 -15 232 1108 0 459 228 461 15 461 1109
 0 251 228 0 17 251 0 461 251 251 0 249 252 0 0 -15 460 1062 0 456 209 0 17 456
 0 460 456 456 0 240 454 0 0 +17 240 0 234 240 240 0 456 454 0 0 -17 452 0 225 4
52 452 0 462 450 0 0 +15 225 1050 0 452 218 463 17 462 0 229 462 462 0 452 450 0
 0 -15 229 1095 0 462 224 464 15 464 1096 0 465 224 0 17 465 0 464 465 465 0 442
 439 0 0 -17 442 0 195 442 442 0 465 439 0 0 +15 195 1038 0 442 189 334 15 463 1
044 0 449 218 0 17 449 0 463 449 449 0 466 443 0 0 +17 466 0 239 466 466 0 449 4
43 0 0 -15 239 1134 0 466 18 467 15 467 1135 0 468 18 0 17 468 0 467 468 468 0 2
3 10 0 0 -17 23 0 200 23 23 0 468 10 0 0 +15 200 1080 0 23 194 469 15 469 246 0
 129 194 0 17 129 0 469 129 129 0 470 127 0 0 +17 470 0 471 470 470 0 129 127 0
 0 -15 471 395 0 470 159 380 14 159 157 431 ?156 383 471 5 150 -0 0 156 383 22 8
1 1 431 1470 235 159 472 0 428 473 474 14 156 686 473 ?302 159 27 5 149 -92 92 3
02 159 22 81 1 473 1471 235 156 475 0 431 476 477 14 302 674 476 ?154 156 352 5
 157 -153 153 154 156 22 15 27 689 0 25 156 0 14 92 690 478 ?283 153 35 5 149 -1
56 156 283 153 22 81 1 478 1473 235 92 479 0 476 480 481 14 283 832 480 ?295 92
 482 5 281 +0 0 295 92 22 81 1 480 1474 235 283 483 0 478 484 485 15 482 834 0 4
86 283 0 17 486 0 482 486 486 0 487 291 0 0 +17 487 0 298 487 487 0 486 291 0 0
 -16 291 828 0 ?486 256 488 286 0 0 1 16 488 866 0 ?489 291 0 292 0 0 1 17 489 0
 280 489 489 0 490 488 0 0 +31 292 887 0 488 0 286 0 +.011938 -.021336 0 0 1 0 0
 0 1 .0025146 15 280 876 0 489 205 264 17 490 0 491 490 490 0 489 488 0 0 -15 49
1 872 0 490 279 0 14 279 870 484 ?205 295 491 5 275 +0 0 205 295 22 81 1 484 147
5 235 279 492 0 480 493 494 80 255 1 235 495 496 9000 1 1 1 1 1 1 1 1 0 FFFFTFTF
FFFFFF1 81 1 492 1357 497 279 0 484 498 499 500 81 1 493 1476 235 154 501 0 484
 502 503 82 255 1 494 -1243152110 14 154 658 493 ?148 302 355 5 137 -148 148 148
 302 22 81 1 501 1351 497 154 0 493 504 505 506 81 1 502 1477 235 199 507 0 493
 508 509 82 1 503 -1296301809 14 199 489 502 ?194 243 338 5 146 -106 106 194 243
 22 81 1 507 1333 497 199 0 502 510 511 512 81 1 508 1478 235 114 513 0 502 0 51
4 82 1 509 -1294008049 14 114 232 508 ?106 189 96 5 190 -243 243 106 189 22 81 1
 513 1336 497 114 0 508 515 516 517 82 1 514 -1368522481 80 1 497 0 518 8001 0 0
 0 0 3 5 0 0 0 FFFFTFTFFFFFFF2 81 1 515 1335 497 189 0 193 511 513 519 81 1 516
 1337 497 106 0 318 513 430 520 83 255 3 517 .792156862745098 .819607843137255 .
933333333333333 81 1 318 1459 235 106 516 0 300 385 521 81 1 430 1338 497 319 0
 428 516 522 523 83 3 520 .792156862745098 .819607843137255 .933333333333333 81
 1 522 1339 497 424 0 426 430 524 525 83 3 523 .792156862745098 .819607843137255
 .933333333333333 81 1 426 1468 235 424 522 0 423 428 526 81 1 524 1340 497 420
 0 423 522 527 528 83 3 525 .792156862745098 .819607843137255 .933333333333333 8
1 1 423 1467 235 420 524 0 419 426 529 81 1 527 1341 497 414 0 419 524 530 531 8
3 3 528 .792156862745098 .819607843137255 .933333333333333 81 1 419 1466 235 414
 527 0 412 423 532 81 1 530 1342 497 408 0 412 527 411 533 83 3 531 .79215686274
5098 .819607843137255 .933333333333333 81 1 412 1465 235 408 530 0 407 419 534 8
1 1 411 1343 497 403 0 407 530 535 536 83 3 533 .792156862745098 .81960784313725
5 .933333333333333 81 1 535 1344 497 397 0 402 411 537 538 83 3 536 .79215686274
5098 .819607843137255 .933333333333333 81 1 402 1463 235 397 535 0 396 407 539 8
1 1 537 1345 497 391 0 396 535 540 541 83 3 538 .792156862745098 .81960784313725
5 .933333333333333 81 1 396 1462 235 391 537 0 390 402 542 81 1 540 1346 497 386
 0 390 537 543 544 83 3 541 .792156862745098 .819607843137255 .933333333333333 8
1 1 390 1461 235 386 540 0 385 396 545 81 1 543 1347 497 383 0 385 540 472 546 8
3 3 544 .792156862745098 .819607843137255 .933333333333333 81 1 385 1460 235 383
 543 0 318 390 547 81 1 472 1348 497 159 0 431 543 475 548 83 3 546 .79215686274
5098 .819607843137255 .933333333333333 81 1 475 1349 497 156 0 473 472 504 549 8
3 3 548 .792156862745098 .819607843137255 .933333333333333 81 1 504 1350 497 302
 0 476 475 501 550 83 3 549 .792156862745098 .819607843137255 .933333333333333 8
1 1 476 1472 235 302 504 0 473 478 551 83 3 550 .792156862745098 .81960784313725
5 .933333333333333 82 1 551 -1298202353 82 1 547 -1376780019 82 1 545 -137619019
5 82 1 542 -1375600371 82 1 539 -1375010547 82 1 534 -1373830888 82 1 532 -13732
41075 82 1 529 -1372651251 82 1 526 -1372061416 81 1 300 1458 235 153 552 0 297
 318 553 82 1 521 -1369112305 81 1 552 1353 497 153 0 300 505 479 554 81 1 297 1
457 235 295 498 0 278 300 555 82 1 553 -1297743601 81 1 498 1356 497 295 0 297 4
83 492 556 81 1 278 1456 235 205 499 0 246 297 557 82 1 555 -1266941679 81 1 499
 1358 497 205 0 278 492 558 559 81 1 246 1455 235 243 510 0 242 278 560 82 1 557
 -1240858350 81 1 510 1332 497 243 0 246 245 507 561 82 1 560 -1289486065 81 1 2
45 1331 497 16 0 242 0 510 562 83 3 561 .792156862745098 .819607843137255 .93333
3333333333 83 3 562 .792156862745098 .819607843137255 .933333333333333 81 1 558
 1359 497 201 0 203 499 563 564 83 3 559 .792156862745098 .819607843137255 .9333
33333333333 81 1 203 1446 235 201 558 0 198 208 565 81 1 563 1360 497 204 0 208
 558 566 567 83 3 564 .792156862745098 .819607843137255 .933333333333333 81 1 20
8 1447 235 204 563 0 203 217 568 81 1 566 1361 497 209 0 217 563 569 570 83 3 56
7 .792156862745098 .819607843137255 .933333333333333 81 1 217 1448 235 209 566 0
 208 223 571 81 1 569 1362 497 218 0 223 566 572 573 83 3 570 .792156862745098 .
819607843137255 .933333333333333 81 1 223 1449 235 218 569 0 217 227 574 81 1 57
2 1363 497 224 0 227 569 575 576 83 3 573 .792156862745098 .819607843137255 .933
333333333333 81 1 227 1450 235 224 572 0 223 230 577 81 1 575 1364 497 228 0 230
 572 236 578 83 3 576 .792156862745098 .819607843137255 .933333333333333 81 1 23
0 1451 235 228 575 0 227 233 579 81 1 236 1365 497 231 0 233 575 580 581 83 3 57
8 .792156862745098 .819607843137255 .933333333333333 81 1 580 1366 497 18 0 237
 236 0 582 83 3 581 .792156862745098 .819607843137255 .933333333333333 81 1 237
 1453 235 18 580 0 233 242 583 83 3 582 .792156862745098 .819607843137255 .93333
3333333333 82 1 583 -744947430 82 1 579 -747437798 82 1 577 -748682982 82 1 574
 -755891942 82 1 571 -757268198 82 1 568 -763887336 81 1 198 1445 235 194 511 0
 193 203 584 82 1 565 -765132520 81 1 511 1334 497 194 0 198 507 515 585 81 1 19
3 1444 235 189 515 0 152 198 586 82 1 584 -1366752998 81 1 152 1443 235 148 505
 0 0 193 587 82 1 586 -1367932646 81 1 505 1352 497 148 0 152 501 552 588 82 1 5
87 -1295777521 83 3 588 .792156862745098 .819607843137255 .933333333333333 83 3
 585 .792156862745098 .819607843137255 .933333333333333 81 1 483 1355 497 283 0
 480 479 498 589 83 3 556 .792156862745098 .819607843137255 .933333333333333 81
 1 479 1354 497 92 0 478 552 483 590 83 3 589 .792156862745098 .819607843137255
 .933333333333333 83 3 590 .792156862745098 .819607843137255 .933333333333333 83
 3 554 .792156862745098 .819607843137255 .933333333333333 83 3 519 .792156862745
098 .819607843137255 .933333333333333 79 255 15 518 SDL/TYSA_COLOUR83 3 512 .792
156862745098 .819607843137255 .933333333333333 83 3 506 .792156862745098 .819607
843137255 .933333333333333 83 3 500 .792156862745098 .819607843137255 .933333333
333333 79 14 496 SWEntUnchanged15 264 877 0 262 205 0 15 298 838 0 487 295 591 1
5 591 839 0 255 295 0 17 255 0 591 255 255 0 253 256 0 0 +82 1 485 -1268711151 8
2 1 481 -1303510769 82 1 477 -1303052017 82 1 474 -1377369843 31 274 909 0 268 2
69 446 0 --.027178 0 0 -1 0 0 0 0 1 .0175133 16 268 906 0 ?592 440 265 274 0 0 1
 17 592 0 415 592 592 0 593 268 0 0 +15 415 907 0 592 408 594 17 593 0 206 593 5
93 0 592 268 0 0 -15 206 933 0 593 201 595 15 595 934 0 596 201 0 17 596 0 595 5
96 596 0 267 265 0 0 -17 267 0 409 267 267 0 596 265 0 0 +15 594 186 0 366 408 0
 17 366 0 594 366 366 0 597 362 0 0 +17 597 0 421 597 597 0 366 362 0 0 -15 421
 383 0 597 414 598 15 598 191 0 361 414 0 17 361 0 598 361 361 0 599 358 0 0 +17
 599 0 425 599 599 0 361 358 0 0 -15 425 384 0 599 420 359 15 359 196 0 357 420
 0 17 445 0 427 445 445 0 600 440 0 0 +15 427 913 0 445 424 601 17 600 0 602 600
 600 0 445 440 0 0 -15 602 947 0 600 204 0 15 601 385 0 360 424 0 17 360 0 601 3
60 360 0 357 356 0 0 -15 210 946 0 437 204 602 17 435 0 241 435 435 0 433 24 0 0
 -15 241 1122 0 435 231 0 82 1 432 -1370881766 52 398 255 0 391 392 404 0 --.032
23402885891525 0 0 1 0 0 .0197231 .553326422571802 .832964507097327 0 0 -1 52 39
2 254 0 386 160 398 0 --.034544 0 0 1 0 0 .0181886191705651 .707106781186554 .70
7106781186541 0 0 -1 52 160 253 0 383 150 392 0 --.0367247053888852 0 0 1 0 0 .0
1600791378167985 .1285540286413946 .991702506662188 0 0 -1 82 1 413 -1374420712
 17 28 0 27 82 25 71 132 130 0 107 -17 85 0 27 29 82 83 113 101 0 336 -17 29 0 2
7 25 85 73 336 333 0 30 -17 49 0 352 41 52 47 344 100 0 316 +17 344 0 248 126 33
9 50 49 100 0 345 -17 316 0 338 118 260 47 41 311 0 339 +17 99 0 334 94 336 86 9
7 119 0 0 -17 97 0 96 113 90 83 99 119 0 0 +16 119 505 0 ?97 124 115 122 124 124
 1 40 2 324 0 1 2 351784474832792e-20 .00107398320698835 ??.0304802 -.0031115069
0474565 .01737659593931725 .0241298 -.00289226742092741 .0181864756917446 41 1 3
25 L?.0304802 -.00311150690474565 .01737659593931725 41 1 326 L?.0241298 -.00289
226742092741 .0181864756917446 204 8 327 4 6.10600002697066 -1999999999988125e-2
2 2001191532862095e-22 .03717589593931725 6.12547210407909 .0063502 -.0063539832
3602815 .0379857756917446 40 2 307 0 1 2 351784474832792e-20 .00107398320698835
 ??.0304802 .00311150690474565 -.01737659593931725 .0241298 .00289226742092741 -
.0181864756917446 41 1 308 L?.0304802 .00311150690474565 -.01737659593931725 41
 1 309 L?.0241298 .00289226742092741 -.0181864756917446 204 8 310 4 2.9644073733
80865 -1999999999988125e-22 -.0166077264927587 .00242270406068277 2.983879450489
3 .0063502 -.01025354313757728 .001612824308255385 82 1 247 -1235418854 82 1 238
 -746192614 80 2 213 603 604 8044 0 0 0 0 3 5 0 0 0 FFFFTFFFTTFFFF3 2 84 255 6 2
21 BAAAAB83 3 222 -.00279400000000005 0 .002794 79 17 604 SDL/TYSA_BLEND_ID84 6
 215 BACAAB83 4 216 0 .002887444816053565 .00288895647239651 .002980889632107075
 40 11 185 0 1 11 .0001455530397117918 .3411155657577925 ??.01388236194208272 -.
00253848765425489 -.01618514038954235 .01305206024332598 -.00236832991855384 -.0
162109130648734 .01232536690274104 -.001935660604393355 -.0162682484313647 .0117
779070602907 -.001283093349556726 -.0163326776878846 .01147611000547714 -.000481
780754305099 -.01637591451812025 .0114567511365039 .0003676685329690215 -.016378
8738578043 .01171523763141936 .001169464262486312 -.0163412068813404 .0122240457
083618 .00184478822944807 -.01627880356133365 .0129344215925964 .002319305361982
21 -.01621799961887655 .01376287503411896 .002531540884226205 -.0161862283979774
5 .01388236194208272 .00253848765425489 -.01618514038954235 41 1 186 L?.01388236
194208272 -.00253848765425489 -.01618514038954235 41 1 187 L?.01388236194208272
 .00253848765425489 -.01618514038954235 204 44 188 4 3.297165899836975 -.0256584
8899126305 4.67787895848068 .00361415961045764 3.286661152942445 -.0248281872925
063 4.342626897618135 .00358838693512661 3.260019841837185 -.0241014939519214 4.
00809842487869 .003531051568635315 3.219991523751025 -.02355403410947105 3.67115
4049672275 .003466622312115405 3.17100425228507 -.0232522370546575 3.33242628855
527 .003423385481879765 3.11914869323589 -.02323287818568425 2.996330940979515 .
00342042614219572 3.070149101443985 -.0234913646805997 2.66312550631918 .0034580
93118659585 3.02874951263718 -.02400017275754215 2.328676786126295 .003520496438
666325 2.99954766105051 -.02471054864177675 1.990738919488215 .00358130038112343
 2.98644859956909 -.0255390020832993 1.652432234758695 .003613071602022565 2.986
01940734261 -.02565848899126305 1.605306348698905 .00361415961045764 40 11 167 0
 1 11 .000145055929030096 .34032506191504 ??.01388236194208272 .0025384876542548
9 -.01823919695132425 .0130510127923146 .002367923671090475 -.0182621237124243 .
01232336348099102 .0019339566112677 -.01831316566915 .01177646312896216 .0012806
2328395103 -.0183704172245652 .01147570623314848 .000479685943764932 -.018408751
35350995 .0114571556699023 -.000370423234551751 -.0184112740359624 .011717522226
87646 -.00117385854411187 -.0183775482891058 .01222878795634352 -.00184926488611
7085 -.0183219115918884 .0129401424699321 -.002321851301819835 -.018268038524489
65 .0137685767556021 -.002532000923502245 -.01824009858315965 .01388236194208272
 -.00253848765425489 -.01823919695132425 41 1 168 L?.01388236194208272 .00253848
765425489 -.01823919695132425 41 1 169 L?.01388236194208272 -.00253848765425489
 -.01823919695132425 204 44 170 4 3.00330339402598 -.02565848899126305 1.6053063
4869891 .001560103048675765 3.01264895953678 -.02482713984149495 1.9410007216017
45 .00153717628757572 3.03637791448925 -.02409949053017135 2.27612234470421 .001
48613433085001 3.07199407904785 -.0235525901781425 2.61315769336766 .00142888277
5434784 3.11554105394794 -.0232518332823288 2.951598927704345 .00139054864649005
4 3.161709309551475 -.0232332827190826 3.2879505262595 .001388025964037576 3.205
380596824605 -.0234936492760568 3.622009677101805 .001421751710894204 3.24218386
8974195 -.02400491500552385 3.95707602359225 .00147738840811161 3.26801392003664
 -.02471626951911245 4.29491166729846 .001531261475510365 3.27952627412115 -.025
54470380478245 4.63300513996168 .001559201416840325 3.279881913153605 -.02565848
899126305 4.67787895848068 .001560103048675765 141 158 320 605 605 149 141 605 1
12 158 158 149 141 147 131 606 607 136 141 606 166 607 147 136 141 607 144 147 6
06 136 19 17 145 0 1 0 9 5 S0 74 4 CI16 index_map_offset0 0 1 dCCZ20 15 10 0 0 5
08 608 609 214 610 611 612 13 580 2 0 0 0 0 0 0 0 0 0 0 81 2 608 888 613 1 0 609
 0 0 0 614 81 2 609 890 615 1 608 610 0 0 0 616 81 1 610 1159 617 1 609 611 0 0
 618 81 2 611 1197 619 1 610 612 0 0 620 0 81 2 612 1325 621 1 611 13 0 0 0 622
 81 2 13 1328 623 1 612 2 0 0 0 0 80 2 623 624 625 9000 0 0 0 0 3 5 0 0 0 FFTFFF
FFFFFFFF9 1 79 16 625 BODY_RECIPE_200180 2 621 626 627 9000 0 0 0 0 3 5 0 0 0 FF
TFFFFFFFFFFF9 1 82 1 622 1 79 24 627 BODY_IN_LIGHTWEIGHT_PERM80 2 619 628 629 80
04 0 0 0 0 3 5 0 0 0 FFTFFFFFFFFFFF2 3 83 1 620 1 79 16 629 SDL/TYSA_DENSITY80 1
 617 630 631 9000 1 1 1 1 1 1 1 1 0 FFTFFFFFFFFFFF1 82 1 618 503109 79 10 631 BO
DY_MATCH80 2 615 632 633 9000 0 0 0 0 3 5 0 0 0 FFTFFFFFFFFFFF9 1 82 1 616 166 7
9 30 633 LAST_BODY_MODIFYING_FEATURE_ID80 2 613 634 635 9000 0 0 0 0 3 5 0 0 0 F
FTFFFFFFFFFFT9 1 82 1 614 280 79 19 635 ENT_TIME_STAMP_200180 2 12 636 637 9000
 0 0 0 0 3 5 0 0 0 FFTFFFFFFFFFFF9 1 82 1 14 104 79 12 637 ATOM_ID_20011 0 
